<?xml version="1.0" standalone="no"?><svg xmlns="http://www.w3.org/2000/svg" viewBox="0 0 1440 320"><path fill="#0099ff" fill-opacity="1" d="M0,160L30,176C60,192,120,224,180,208C240,192,300,128,360,128C420,128,480,192,540,213.3C600,235,660,213,720,170.7C780,128,840,64,900,58.7C960,53,1020,107,1080,138.7C1140,171,1200,181,1260,160C1320,139,1380,85,1410,58.7L1440,32L1440,320L1410,320C1380,320,1320,320,1260,320C1200,320,1140,320,1080,320C1020,320,960,320,900,320C840,320,780,320,720,320C660,320,600,320,540,320C480,320,420,320,360,320C300,320,240,320,180,320C120,320,60,320,30,320L0,320Z"></path></svg>